<?xml version="1.0" standalone="no"?>
<!DOCTYPE svg PUBLIC "-//W3C//DTD SVG 20010904//EN"
 "http://www.w3.org/TR/2001/REC-SVG-20010904/DTD/svg10.dtd">
<svg version="1.0" xmlns="http://www.w3.org/2000/svg"
 width="512.000000pt" height="512.000000pt" viewBox="0 0 512.000000 512.000000"
 preserveAspectRatio="xMidYMid meet">
<metadata>
Created by potrace 1.11, written by Peter Selinger 2001-2013
</metadata>
<g transform="translate(0.000000,512.000000) scale(0.100000,-0.100000)"
fill="#000000" stroke="none">
<path d="M2379 5116 c-2 -2 -40 -7 -84 -11 -44 -4 -87 -8 -95 -10 -141 -21
-127 -19 -250 -49 -106 -27 -287 -83 -305 -95 -5 -4 -28 -13 -50 -20 -56 -18
-210 -93 -309 -150 -511 -296 -916 -771 -1121 -1317 -46 -123 -88 -267 -114
-393 -36 -174 -46 -281 -46 -501 0 -160 6 -268 19 -370 3 -22 41 -216 51 -260
12 -50 61 -207 91 -289 83 -223 249 -510 408 -708 141 -175 366 -378 566 -512
101 -67 419 -237 475 -254 11 -3 54 -18 95 -32 156 -56 412 -118 510 -123 8
-1 49 -5 90 -9 145 -15 520 -8 622 13 13 2 51 9 86 14 207 34 463 120 675 226
687 345 1169 944 1351 1679 13 55 27 116 30 135 3 19 8 47 11 63 11 60 14 79
21 154 11 99 11 415 2 513 -40 400 -171 779 -392 1130 -22 36 -43 67 -46 70
-3 3 -24 30 -45 60 -291 403 -712 721 -1185 893 -109 40 -326 102 -400 113
-14 2 -38 6 -55 9 -16 2 -46 7 -65 10 -19 3 -53 7 -75 11 -46 6 -460 16 -466
10z m396 -331 c687 -68 1317 -460 1685 -1050 280 -450 390 -1005 303 -1535
-21 -131 -19 -123 -54 -244 -185 -653 -639 -1172 -1264 -1447 -130 -57 -403
-137 -525 -153 -25 -4 -63 -9 -85 -12 -22 -3 -58 -7 -80 -9 -53 -6 -329 -6
-380 -1 -91 9 -151 17 -165 21 -8 2 -35 7 -60 10 -138 19 -401 106 -575 190
-407 197 -774 551 -985 950 -119 226 -210 500 -236 710 -4 28 -8 52 -10 55 -6
12 -17 200 -17 305 0 120 8 229 23 315 5 30 12 71 15 90 24 145 105 388 185
555 295 613 880 1070 1547 1210 144 31 154 32 288 41 50 4 91 8 92 9 5 3 239
-4 298 -10z"/>
<path d="M1717 3660 c-9 -4 -12 -258 -11 -1135 1 -621 2 -1139 3 -1150 1 -20
7 -20 904 -19 496 1 904 2 907 3 8 2 5 335 -2 347 -5 8 -185 11 -618 10 l-610
-1 0 60 c-1 33 -2 174 -3 313 -2 218 0 252 13 253 8 1 283 3 610 4 327 1 600
3 605 4 6 1 10 67 10 179 l-1 177 -617 3 -617 2 0 43 c-3 236 -1 509 3 513 3
3 278 5 610 5 455 0 608 3 615 12 10 14 10 363 -1 373 -7 8 -1781 12 -1800 4z"/>
</g>
</svg>
